HIERARCHY
ROOT Root
{
  OFFSET 0.0 0.0 0.0
  CHANNELS 6 Xposition Yposition Zposition Zrotation Yrotation Xrotation
  JOINT Hips
  {
    OFFSET 0.0 100.0 0.0
    CHANNELS 6 Xposition Yposition Zposition Zrotation Yrotation Xrotation
    JOINT Spine1
    {
      OFFSET -0.013727 5.003763 -0.053727
      CHANNELS 3 Zrotation Yrotation Xrotation
      JOINT Spine2
      {
        OFFSET -0.0 7.125301 -0.029825
        CHANNELS 3 Zrotation Yrotation Xrotation
        JOINT Chest
        {
          OFFSET -1e-06 7.550063 -0.815971
          CHANNELS 3 Zrotation Yrotation Xrotation
          JOINT Neck1
          {
            OFFSET -0.181677 26.311295 -0.553348
            CHANNELS 3 Zrotation Yrotation Xrotation
            JOINT Neck2
            {
              OFFSET -3e-06 7.709397 2.302585
              CHANNELS 3 Zrotation Yrotation Xrotation
              JOINT Head
              {
                OFFSET -5e-06 6.128916 1.953709
                CHANNELS 3 Zrotation Yrotation Xrotation
                JOINT HeadEnd
                {
                  OFFSET 0.003598 16.065403 -1.835379
                  CHANNELS 3 Zrotation Yrotation Xrotation
                }
                JOINT Jaw
                {
                  OFFSET 0.002637 0.475592 3.094941
                  CHANNELS 3 Zrotation Yrotation Xrotation
                }
                JOINT LeftEye
                {
                  OFFSET 3.206381 5.380205 7.586883
                  CHANNELS 3 Zrotation Yrotation Xrotation
                }
                JOINT RightEye
                {
                  OFFSET -3.22244 5.361869 7.558234
                  CHANNELS 3 Zrotation Yrotation Xrotation
                }
              }
            }
          }
          JOINT LeftShoulder
          {
            OFFSET 1.621652 23.237164 5.113413
            CHANNELS 3 Zrotation Yrotation Xrotation
            JOINT LeftArm
            {
              OFFSET 14.919846 2e-06 -5.502326
              CHANNELS 3 Zrotation Yrotation Xrotation
              JOINT LeftForeArm
              {
                OFFSET 28.739307 0.0 -0.002588
                CHANNELS 3 Zrotation Yrotation Xrotation
                JOINT LeftHand
                {
                  OFFSET 27.093981 -1e-06 0.002609
                  CHANNELS 3 Zrotation Yrotation Xrotation
                  JOINT LeftHandThumb1
                  {
                    OFFSET 2.276482 -1.392045 3.191413
                    CHANNELS 3 Zrotation Yrotation Xrotation
                    JOINT LeftHandThumb2
                    {
                      OFFSET 4.012836 -1.828127 1.641654
                      CHANNELS 3 Zrotation Yrotation Xrotation
                      JOINT LeftHandThumb3
                      {
                        OFFSET 2.798515 0.0 -3e-06
                        CHANNELS 3 Zrotation Yrotation Xrotation
                        JOINT LeftHandThumbEnd
                        {
                          OFFSET 3.180793 -4e-06 4e-06
                          CHANNELS 3 Zrotation Yrotation Xrotation
                        }
                      }
                    }
                  }
                  JOINT LeftHandIndex1
                  {
                    OFFSET 3.247555 -0.531998 2.296169
                    CHANNELS 3 Zrotation Yrotation Xrotation
                    JOINT LeftHandIndex2
                    {
                      OFFSET 6.364578 0.01206 0.1786
                      CHANNELS 3 Zrotation Yrotation Xrotation
                      JOINT LeftHandIndex3
                      {
                        OFFSET 3.662364 0.0 0.0
                        CHANNELS 3 Zrotation Yrotation Xrotation
                        JOINT LeftHandIndex4
                        {
                          OFFSET 2.329242 4e-06 4e-06
                          CHANNELS 3 Zrotation Yrotation Xrotation
                          JOINT LeftHandIndexEnd
                          {
                            OFFSET 2.759615 -0.180537 -0.113024
                            CHANNELS 3 Zrotation Yrotation Xrotation
                          }
                        }
                      }
                    }
                  }
                  JOINT LeftHandMiddle1
                  {
                    OFFSET 3.163495 0.240981 1.000332
                    CHANNELS 3 Zrotation Yrotation Xrotation
                    JOINT LeftHandMiddle2
                    {
                      OFFSET 6.19078 -0.259278 -1.002548
                      CHANNELS 3 Zrotation Yrotation Xrotation
                      JOINT LeftHandMiddle3
                      {
                        OFFSET 4.35652 -4e-06 -1e-06
                        CHANNELS 3 Zrotation Yrotation Xrotation
                        JOINT LeftHandMiddle4
                        {
                          OFFSET 2.996877 -8e-06 0.0
                          CHANNELS 3 Zrotation Yrotation Xrotation
                          JOINT LeftHandMiddleEnd
                          {
                            OFFSET 2.304287 -0.294569 -0.031741
                            CHANNELS 3 Zrotation Yrotation Xrotation
                          }
                        }
                      }
                    }
                  }
                  JOINT LeftHandRing1
                  {
                    OFFSET 2.882643 -0.053652 -0.322543
                    CHANNELS 3 Zrotation Yrotation Xrotation
                    JOINT LeftHandRing2
                    {
                      OFFSET 5.854541 -0.486202 -1.373841
                      CHANNELS 3 Zrotation Yrotation Xrotation
                      JOINT LeftHandRing3
                      {
                        OFFSET 4.350578 0.0 3e-06
                        CHANNELS 3 Zrotation Yrotation Xrotation
                        JOINT LeftHandRing4
                        {
                          OFFSET 2.651321 7e-06 2e-06
                          CHANNELS 3 Zrotation Yrotation Xrotation
                          JOINT LeftHandRingEnd
                          {
                            OFFSET 1.936105 0.077687 -7.1e-05
                            CHANNELS 3 Zrotation Yrotation Xrotation
                          }
                        }
                      }
                    }
                  }
                  JOINT LeftHandPinky1
                  {
                    OFFSET 2.8655 -0.310005 -1.600378
                    CHANNELS 3 Zrotation Yrotation Xrotation
                    JOINT LeftHandPinky2
                    {
                      OFFSET 5.087849 -1.331141 -1.77123
                      CHANNELS 3 Zrotation Yrotation Xrotation
                      JOINT LeftHandPinky3
                      {
                        OFFSET 3.070974 4e-06 0.0
                        CHANNELS 3 Zrotation Yrotation Xrotation
                        JOINT LeftHandPinky4
                        {
                          OFFSET 1.549672 0.0 1e-06
                          CHANNELS 3 Zrotation Yrotation Xrotation
                          JOINT LeftHandPinkyEnd
                          {
                            OFFSET 1.944893 -0.157802 0.057219
                            CHANNELS 3 Zrotation Yrotation Xrotation
                          }
                        }
                      }
                    }
                  }
                }
              }
            }
          }
          JOINT RightShoulder
          {
            OFFSET -1.380118 23.180309 5.214158
            CHANNELS 3 Zrotation Yrotation Xrotation
            JOINT RightArm
            {
              OFFSET -15.037196 1.2e-05 -5.545604
              CHANNELS 3 Zrotation Yrotation Xrotation
              JOINT RightForeArm
              {
                OFFSET -28.736639 2e-06 -0.002597
                CHANNELS 3 Zrotation Yrotation Xrotation
                JOINT RightHand
                {
                  OFFSET -27.133619 -0.0 0.002613
                  CHANNELS 3 Zrotation Yrotation Xrotation
                  JOINT RightHandThumb1
                  {
                    OFFSET -2.274032 -1.383988 3.163127
                    CHANNELS 3 Zrotation Yrotation Xrotation
                    JOINT RightHandThumb2
                    {
                      OFFSET -4.011429 -1.827466 1.640914
                      CHANNELS 3 Zrotation Yrotation Xrotation
                      JOINT RightHandThumb3
                      {
                        OFFSET -2.794935 -4e-06 -3e-06
                        CHANNELS 3 Zrotation Yrotation Xrotation
                        JOINT RightHandThumbEnd
                        {
                          OFFSET -3.183852 4e-06 1e-06
                          CHANNELS 3 Zrotation Yrotation Xrotation
                        }
                      }
                    }
                  }
                  JOINT RightHandIndex1
                  {
                    OFFSET -3.253266 -0.520057 2.282866
                    CHANNELS 3 Zrotation Yrotation Xrotation
                    JOINT RightHandIndex2
                    {
                      OFFSET -6.341917 0.012471 0.178266
                      CHANNELS 3 Zrotation Yrotation Xrotation
                      JOINT RightHandIndex3
                      {
                        OFFSET -3.654871 -8e-06 -0.0
                        CHANNELS 3 Zrotation Yrotation Xrotation
                        JOINT RightHandIndex4
                        {
                          OFFSET -2.327586 0.0 1e-06
                          CHANNELS 3 Zrotation Yrotation Xrotation
                          JOINT RightHandIndexEnd
                          {
                            OFFSET -2.76179 -0.180656 -0.113078
                            CHANNELS 3 Zrotation Yrotation Xrotation
                          }
                        }
                      }
                    }
                  }
                  JOINT RightHandMiddle1
                  {
                    OFFSET -3.168106 0.246593 1.00103
                    CHANNELS 3 Zrotation Yrotation Xrotation
                    JOINT RightHandMiddle2
                    {
                      OFFSET -6.180828 -0.258836 -1.000895
                      CHANNELS 3 Zrotation Yrotation Xrotation
                      JOINT RightHandMiddle3
                      {
                        OFFSET -4.348901 0.0 -0.0
                        CHANNELS 3 Zrotation Yrotation Xrotation
                        JOINT RightHandMiddle4
                        {
                          OFFSET -3.00024 -4e-06 -2e-06
                          CHANNELS 3 Zrotation Yrotation Xrotation
                          JOINT RightHandMiddleEnd
                          {
                            OFFSET -2.30252 -0.29437 -0.031706
                            CHANNELS 3 Zrotation Yrotation Xrotation
                          }
                        }
                      }
                    }
                  }
                  JOINT RightHandRing1
                  {
                    OFFSET -2.88569 -0.067952 -0.308858
                    CHANNELS 3 Zrotation Yrotation Xrotation
                    JOINT RightHandRing2
                    {
                      OFFSET -5.854198 -0.48613 -1.373731
                      CHANNELS 3 Zrotation Yrotation Xrotation
                      JOINT RightHandRing3
                      {
                        OFFSET -4.33881 -4e-06 -0.0
                        CHANNELS 3 Zrotation Yrotation Xrotation
                        JOINT RightHandRing4
                        {
                          OFFSET -2.654903 -4e-06 4e-06
                          CHANNELS 3 Zrotation Yrotation Xrotation
                          JOINT RightHandRingEnd
                          {
                            OFFSET -1.933568 0.077527 -5.2e-05
                            CHANNELS 3 Zrotation Yrotation Xrotation
                          }
                        }
                      }
                    }
                  }
                  JOINT RightHandPinky1
                  {
                    OFFSET -2.866425 -0.342796 -1.584145
                    CHANNELS 3 Zrotation Yrotation Xrotation
                    JOINT RightHandPinky2
                    {
                      OFFSET -5.091371 -1.332055 -1.772385
                      CHANNELS 3 Zrotation Yrotation Xrotation
                      JOINT RightHandPinky3
                      {
                        OFFSET -3.062664 -4e-06 1e-06
                        CHANNELS 3 Zrotation Yrotation Xrotation
                        JOINT RightHandPinky4
                        {
                          OFFSET -1.546529 4e-06 -2e-06
                          CHANNELS 3 Zrotation Yrotation Xrotation
                          JOINT RightHandPinkyEnd
                          {
                            OFFSET -1.945119 -0.157718 0.057211
                            CHANNELS 3 Zrotation Yrotation Xrotation
                          }
                        }
                      }
                    }
                  }
                }
              }
            }
          }
        }
      }
    }
    JOINT LeftLeg
    {
      OFFSET 10.043214 -8.434526 2.595655
      CHANNELS 3 Zrotation Yrotation Xrotation
      JOINT LeftShin
      {
        OFFSET -1e-06 -43.221752 -0.802913
        CHANNELS 3 Zrotation Yrotation Xrotation
        JOINT LeftFoot
        {
          OFFSET 1e-06 -42.155094 -3.481523
          CHANNELS 3 Zrotation Yrotation Xrotation
          JOINT LeftToeBase
          {
            OFFSET 0.0 -5.059472 13.231529
            CHANNELS 3 Zrotation Yrotation Xrotation
            JOINT LeftToeEnd
            {
              OFFSET -0.009607 -1.647619 6.513017
              CHANNELS 3 Zrotation Yrotation Xrotation
            }
          }
        }
      }
    }
    JOINT RightLeg
    {
      OFFSET -10.047278 -8.29526 2.620317
      CHANNELS 3 Zrotation Yrotation Xrotation
      JOINT RightShin
      {
        OFFSET 1e-06 -43.362206 -0.805556
        CHANNELS 3 Zrotation Yrotation Xrotation
        JOINT RightFoot
        {
          OFFSET 2e-06 -42.117393 -3.478398
          CHANNELS 3 Zrotation Yrotation Xrotation
          JOINT RightToeBase
          {
            OFFSET -0.0 -5.079609 13.284196
            CHANNELS 3 Zrotation Yrotation Xrotation
            JOINT RightToeEnd
            {
              OFFSET 0.009532 -1.634378 6.460591
              CHANNELS 3 Zrotation Yrotation Xrotation
            }
          }
        }
      }
    }
  }
}
MOTION
Frames: 4
Frame Time: 0.03333333333333333
0.0 0.0 0.0 0.0 -0.0 0.0 -0.376685 98.777252 -3.74951 0.51864 -1.05325 3.43477 -2.244954 -2.521358 4.87371 -0.385503 -7.778606 -4.047804 -0.579181 -9.754224 11.194652 2.254897 1.926699 12.416062 -0.453299 1.727809 -3.483966 -4.123718 3.16435 -6.57063 7.7e-05 -2.2e-05 5e-06 0.003435 0.039654 -0.104368 0.741493 -3.66794 -10.557719 -0.732508 3.749758 -10.596189 2.840861 -14.362985 15.072993 -60.682053 -16.160934 10.583946 -177.179214 -61.024189 177.185516 6.157331 -9.167102 -15.484483 -5.882104 9.861284 0.702589 -10.93687 -0.360575 7.156203 1e-06 8.774824 -1e-06 -15.817387 18.503613 6.276396 -1.844033 2.498504 -2.507277 -10.163598 4.678944 4.621106 -20.976023 -4e-06 0.0 -21.226286 2.451696 -3.594002 1e-06 -6e-06 -1e-06 -1.362682 2.240798 -0.746324 -21.334911 0.58491 3.00832 -13.821213 -3e-06 1e-06 -23.887167 -0.249081 -0.839484 -59.857697 2.48628 -1.703093 -0.294025 1.679686 0.833255 -14.218205 0.093214 1.300578 -34.212048 -0.287566 0.967169 -20.033209 0.964534 1.212843 3e-06 1e-06 1e-06 -3.440389 0.788234 0.501655 -15.928183 -3.16731 2.999705 -6.338825 -2e-06 -0.0 -18.123444 3.648181 -4.905671 -4e-06 0.0 -2e-06 1.407526 -3.333102 16.732168 60.252438 -12.26847 19.89242 -178.984085 78.36541 179.293579 -2.558041 -12.027883 -10.190355 2.243543 -5.255038 -3.18016 14.282896 -0.826597 6.952506 -3e-06 -12.690609 2e-06 16.36842 -17.892727 2.533523 1.665668 -1.955923 -2.878301 4.727801 -4.170592 4.993927 11.020531 4e-06 -2e-06 12.109058 -3.735717 -2.866786 -1e-06 -1e-06 0.0 1.291986 -1.928549 -1.49809 14.800136 0.567467 3.865609 14.242579 -1.341735 -6.660661 19.631977 0.143926 -0.648247 50.92783 -1.005813 -6.755698 0.353029 -1.511151 -0.03194 20.222801 3.68431 2.31663 18.787283 6e-06 -0.0 10.751636 -0.479869 1.397905 0.0 2e-06 0.0 3.273808 0.305947 -0.580111 21.486824 11.830381 2.266133 8.162931 0.0 -1e-06 18.399092 -3.798986 -4.940578 2e-06 -1e-06 -1e-06 1.628019 5.502883 16.114698 0.184445 -0.652244 45.55769 -1.627846 4.781939 11.652395 1.650742 -1.960715 -4.039523 -0.0 0.0 2e-06 0.972785 -7.240877 -28.904186 -0.126215 -0.102575 20.06028 14.901537 -0.132813 -0.262854 -1.299138 1.128268 -2.755835 -0.0 -0.0 -1e-06 
0.0 0.0 0.0 0.0 -0.0 0.0 -0.623464 96.714592 1.055341 0.472713 -1.9604 1.182988 -1.446651 -1.704606 5.786851 -0.200064 -5.914483 -3.718176 -0.55201 -8.278967 11.584604 0.691298 2.629578 13.445044 -0.323801 0.855408 -3.585089 -3.742557 2.553804 -7.515798 7.7e-05 -2.3e-05 4e-06 0.052949 -0.100265 -0.113464 0.76349 -3.801167 -10.624766 -0.656553 3.600695 -10.651828 -0.181425 -11.552732 15.813049 -61.433365 -10.998278 14.668251 -177.190033 -71.374992 176.541412 5.883157 -9.842649 -16.398695 -5.882109 9.861288 0.702588 -10.936875 -0.360575 7.156209 -1e-06 8.774827 -2e-06 -16.339937 18.965204 6.058343 -1.844036 2.498506 -2.50728 -10.163604 4.678946 4.62111 -20.97603 -3e-06 1e-06 -21.226292 2.451696 -3.594003 1e-06 -6e-06 -0.0 -1.362682 2.240799 -0.746324 -21.334923 0.58491 3.008325 -13.821219 -2e-06 2e-06 -23.887178 -0.249078 -0.839485 -60.180286 2.361009 -1.704786 -0.294026 1.679688 0.833256 -14.218215 0.093215 1.300581 -34.212063 -0.287563 0.96717 -20.033218 0.964537 1.212843 0.0 0.0 -0.0 -3.44039 0.788234 0.501656 -15.928192 -3.16731 2.999709 -6.338829 -1e-06 1e-06 -18.123455 3.648184 -4.905674 -4e-06 -0.0 -2e-06 4.889039 -1.389399 16.788591 55.912834 -6.918073 18.478823 177.315872 80.302917 176.068726 -2.410073 -10.734204 -15.062157 2.243541 -5.255037 -3.180157 14.282887 -0.826594 6.9525 -1e-06 -12.690605 -2e-06 16.22875 -17.97468 2.439715 1.665666 -1.955921 -2.878298 4.727797 -4.170588 4.993921 11.020523 1e-06 -2e-06 12.109048 -3.735717 -2.866785 2e-06 0.0 1e-06 1.291985 -1.92855 -1.498089 14.800125 0.56747 3.865606 14.242568 -1.341739 -6.660655 19.631958 0.143928 -0.648245 50.824806 -0.679514 -6.659412 0.353029 -1.51115 -0.03194 20.222786 3.684311 2.316629 18.78727 6e-06 -1e-06 10.751625 -0.479868 1.397906 2e-06 1e-06 1e-06 3.273806 0.305946 -0.580111 21.486809 11.830377 2.266136 8.162922 4e-06 -0.0 18.399076 -3.798984 -4.940575 2e-06 0.0 -0.0 3.45994 6.821784 10.597535 0.214195 -0.689303 64.79422 -0.253611 9.699106 5.014122 2.169083 -2.075443 -3.319947 0.0 -0.0 2e-06 0.397578 -6.013538 -27.616444 0.144009 -0.155254 31.509764 3.992091 0.058196 -3.608611 -1.419127 0.929889 -0.869564 0.0 0.0 -1e-06 
0.0 0.0 0.0 0.0 -0.0 0.0 -1.010853 94.750473 9.367652 -1.799602 -1.926287 0.279915 0.386005 -0.981377 6.328408 0.242528 -4.10138 -3.552469 1.08358 -6.787531 12.259713 -0.936406 3.199916 13.11488 -0.463477 0.122026 -3.654288 -3.619965 1.637904 -9.732907 7.7e-05 -2.2e-05 6e-06 0.045086 -0.13305 -0.095703 0.757889 -3.820994 -10.652443 -0.670909 3.556407 -10.659861 -3.107909 -7.69594 16.890966 -61.560326 -5.723301 17.013409 -171.525192 -82.875717 170.659821 8.267026 -9.860011 -15.462881 -5.882104 9.861286 0.702587 -10.936866 -0.360575 7.156206 -2e-06 8.774824 -2e-06 -16.03577 18.703424 6.349462 -1.844032 2.498505 -2.507279 -10.163597 4.678944 4.621109 -20.976019 -3e-06 -0.0 -21.22628 2.451696 -3.594004 1e-06 -6e-06 1e-06 -1.362681 2.240799 -0.746324 -21.334906 0.584909 3.008322 -13.82121 -2e-06 1e-06 -23.887161 -0.249078 -0.839485 -61.121498 2.46376 -1.608764 -0.294024 1.679687 0.833255 -14.218201 0.093216 1.30058 -34.212036 -0.287563 0.967168 -20.033205 0.964537 1.212842 -0.0 0.0 -0.0 -3.440389 0.788233 0.501656 -15.928181 -3.167309 2.999708 -6.338824 -1e-06 1e-06 -18.123444 3.648184 -4.905674 -5e-06 0.0 -2e-06 8.799813 1.066635 16.85574 49.238071 -0.137517 17.212612 173.014709 82.041893 172.271194 -2.21566 -11.474253 -18.861813 2.243542 -5.255036 -3.180157 14.282894 -0.826597 6.9525 -2e-06 -12.690607 -0.0 16.187727 -17.837315 2.541601 1.665666 -1.955922 -2.878298 4.7278 -4.170587 4.993924 11.020528 3e-06 -1e-06 12.109053 -3.735718 -2.866784 2e-06 -1e-06 -0.0 1.291986 -1.928548 -1.498089 14.800131 0.567471 3.865608 14.242571 -1.34174 -6.660657 19.631969 0.143922 -0.648246 50.475044 -0.388272 -6.473241 0.353029 -1.511151 -0.03194 20.222794 3.684309 2.31663 18.787279 5e-06 -0.0 10.751629 -0.479869 1.397906 -1e-06 -0.0 -1e-06 3.273807 0.305946 -0.580111 21.486818 11.830376 2.266132 8.16293 2e-06 -0.0 18.399086 -3.798985 -4.940577 3e-06 1e-06 -0.0 7.567698 6.506011 0.989382 0.146925 -0.660381 81.805107 1.128762 13.127242 2.654613 2.407149 -2.03376 -3.297328 0.0 0.0 2e-06 2.244811 -4.869617 -25.363884 -0.029398 -0.192622 40.994289 2.593571 -1.664784 -13.754303 -1.428107 0.923413 0.397911 0.0 0.0 -1e-06 
0.0 0.0 0.0 0.0 -0.0 0.0 -1.22026 94.312546 17.50421 -2.900237 -0.935354 0.267111 1.499604 -0.412685 6.220659 0.316139 -2.699136 -3.525744 2.349018 -5.242249 12.871903 -1.573794 3.605569 12.358854 -0.802468 -0.567129 -3.625184 -3.52018 0.831277 -10.695068 7.7e-05 -2.3e-05 6e-06 0.031295 -0.142737 -0.079428 0.722182 -3.838817 -10.687197 -0.663953 3.55479 -10.687084 -3.831744 -4.241086 18.030329 -60.355392 0.493248 20.014725 -54.158722 -88.9161 53.16328 12.874406 -8.142988 -12.770202 -5.882104 9.861286 0.702589 -10.936868 -0.360575 7.156204 1e-06 8.774822 -2e-06 -16.144375 18.214516 6.165277 -1.844032 2.498506 -2.507279 -10.1636 4.678945 4.621109 -20.976021 -1e-06 -0.0 -21.226284 2.451697 -3.594002 -0.0 -7e-06 -1e-06 -1.362681 2.240799 -0.746323 -21.334908 0.584909 3.008322 -13.82121 -1e-06 2e-06 -23.887161 -0.249079 -0.839484 -61.926094 2.717333 -1.594808 -0.294024 1.679688 0.833255 -14.218205 0.093217 1.300579 -34.21204 -0.287564 0.967168 -20.033211 0.964537 1.212842 -1e-06 -1e-06 1e-06 -3.440389 0.788234 0.501656 -15.928183 -3.16731 2.999707 -6.338823 -0.0 1e-06 -18.123444 3.648183 -4.905674 -4e-06 0.0 -2e-06 10.798987 3.871251 17.41996 44.592857 6.508607 13.7121 169.255005 82.073921 168.787018 -2.59323 -13.497304 -17.781862 2.243541 -5.255037 -3.180158 14.282889 -0.826593 6.952504 -3e-06 -12.690605 1e-06 16.192877 -17.693745 2.544976 1.665666 -1.955921 -2.878299 4.727797 -4.170588 4.993925 11.020526 5e-06 -2e-06 12.109051 -3.735714 -2.866786 1e-06 1e-06 -0.0 1.291985 -1.92855 -1.49809 14.800125 0.567469 3.865609 14.242568 -1.341735 -6.660659 19.631964 0.143928 -0.648243 49.86425 -0.425754 -6.313269 0.353029 -1.51115 -0.03194 20.222788 3.684311 2.31663 18.78727 6e-06 -0.0 10.751624 -0.479868 1.397906 0.0 -0.0 -1e-06 3.273806 0.305945 -0.580112 21.486813 11.830377 2.266133 8.162925 2e-06 0.0 18.399078 -3.798985 -4.940575 3e-06 0.0 -2e-06 9.074727 4.265207 -10.536249 0.108995 -0.515004 91.42247 2.376876 14.393784 1.439426 2.381063 -2.036971 -3.965157 0.0 0.0 1e-06 2.807853 -6.14061 -20.08777 0.018228 -0.239386 42.613899 3.560035 -1.491634 -18.980364 -1.428962 0.917293 0.4193 -0.0 0.0 -1e-06 
